<?xml version="1.0" encoding="utf-8"?>
<svg version="1.1" x="0px" y="0px" viewBox="0 0 522 57.2" style="enable-background:new 0 0 522 57.2;" xmlns="http://www.w3.org/2000/svg" xml:space="preserve">
  <style type="text/css">
	.st0{fill:#FFFFFF;}
	.st1{fill-rule:evenodd;clip-rule:evenodd;}
	.st2{fill-rule:evenodd;clip-rule:evenodd;fill:#FFFFFF;}
</style>
  <g id="Calque_2" style=""/>
  <g id="Calque_1" style="">
    <g style="">
      <g transform="matrix(1, 0, 0, 1.001279, 0, -0.073152)">
        <g transform="matrix(1.540265, 0, 0, 1.540265, -35.306423, -0.039467)">
          <path class="st0" d="M192.9,35.8c-7,1.6-16.1,2-22.6-1c-5.6-2.4-9-8.3-9.7-13.9c-0.7-7,1.9-13.1,7.5-17.2 c6.5-4.7,16.9-4.5,24-1.3v7.1c-5.4-2.5-13.5-3.9-18.7,0c-3.7,2.9-4.9,7.4-3.9,11.9c0.7,3.6,3.8,6.8,7.2,7.9 c2.4,0.8,5.4,1,8.1,0.7v-5.8l-3.6,0v-7h11.7L192.9,35.8L192.9,35.8z"/>
          <polygon class="st0" points="106.7,36.1 106.7,6.9 119.6,6.9 119.6,0.1 84.6,0.1 84.6,6.9 97.5,6.9 97.5,36.1 &#9;&#9;&#9;"/>
          <path class="st0" d="M132.7,22.8l5.2-13.4l5.6,13.4H132.7z M143,0.4h-10.5l-14.7,35.9h9.7l2.8-7h16.1l2.9,7h9.6L143,0.4z"/>
          <polygon class="st0" points="228.1,15.8 207.7,15.8 207.7,0.4 202.3,0.4 202.3,36.2 207.7,36.2 207.7,20.6 228.1,20.6 &#10;&#9;&#9;&#9;&#9;228.1,36.2 233.5,36.2 233.5,0.4 228.1,0.4 &#9;&#9;&#9;"/>
          <path class="st0" d="M293.9,26.1c-0.4,0.9-2.8,6.1-9.1,6.1c-6.4,0-7.3-4.9-7.3-7.9V5.2H272l0,18.4C272,36,281.4,37,284.2,37 c4.7,0,7.9-2,9.7-3.7l0,3h5.5v-31h-5.5L293.9,26.1z"/>
          <path class="st0" d="M361.5,8.5c-0.1-0.2-3.5-3.9-7.9-3.9c-3.8,0-7.6,3.7-9.7,6.3l0-5.7h-5.5v31.2h5.5l0-18.6 c1.4-2.4,5.3-7.8,8.6-7.8c2.7,0,5.6,3.1,5.6,3.1L361.5,8.5z"/>
          <path class="st0" d="M252.8,4.6c-8.6,0-15,6.4-15,16.1c0,6.7,4.5,16.3,16.6,16.3c7.7,0,12.3-4.2,12.5-4.4l0.3-0.3l0-6.4l-1.7,1.6 c0,0-4.6,4.4-10.8,4.4c-6.7,0-11.4-3.9-11.4-11.1c0,0,0,0,0-0.1h24.4v-1C267.9,12,263.2,4.6,252.8,4.6z M244.3,15.8 c1.4-4.4,4.5-6.1,8.5-6.1c6.5,0,8.4,3.9,8.9,6.1H244.3z"/>
          <path class="st0" d="M318.9,4.6c-8.6,0-15,6.4-15,16.1c0,6.7,4.5,16.3,16.6,16.3c7.7,0,12.3-4.2,12.5-4.4l0.3-0.3l0-6.4l-1.7,1.6 c0,0-4.6,4.4-10.8,4.4c-6.7,0-11.4-3.9-11.4-11.1c0,0,0,0,0-0.1H334v-1C334,12,329.3,4.6,318.9,4.6z M310.4,15.8 c1.4-4.4,4.5-6.1,8.5-6.1c6.5,0,8.4,3.9,8.9,6.1H310.4z"/>
        </g>
        <g style="pointer-events: none;">
          <polygon class="st1" points="0,38.3 0,0.1 66,0.1 66,38.3 33,57.2 &#9;&#9;&#9;"/>
          <polygon class="st0" points="1.7,1.8 1.7,1.8 1.7,37.3 33,55.3 33,55.3 33,55.3 64.3,37.3 64.3,37.3 64.3,1.8 &#9;&#9;&#9;"/>
          <polygon class="st1" points="62.7,21.8 62.7,3.5 3.3,3.5 3.3,22.7 62.7,22.7 &#9;&#9;&#9;"/>
          <g>
            <g>
              <polygon class="st2" points="17.8,20.4 17.8,8.8 24,8.8 24,5.7 7.3,5.7 7.3,8.8 13.5,8.8 13.5,20.4 17.8,20.4 17.8,20.4 &#9;&#9;&#9;&#9;&#9;&#10;&#9;&#9;&#9;&#9;&#9;&#9;"/>
            </g>
          </g>
          <g>
            <g>
              <path class="st2" d="M58,20.2c-3.3,0.6-7.6,0.8-10.8-0.4c-2.7-1-4.3-3.4-4.6-5.7c-0.4-2.9,0.9-5.4,3.6-7.1 c3.1-1.9,8-1.8,11.4-0.5l0,0v3.2c-2.6-1-6.4-1.9-8.9-0.3c-1.8,1.2-2.3,3-1.9,4.9c0.4,1.5,1.8,2.8,3.4,3.3 c1.1,0.3,2.6,0.4,3.8,0.3l0,0v-2.4l-1.7,0v-2.9h5.6L58,20.2z"/>
            </g>
          </g>
          <g>
            <g>
              <path class="st2" d="M28.2,17.6l-1.5,2.9h-4.4l7.2-14.7h5l7.4,14.7h-4.5l-1.5-2.9H28.2L28.2,17.6L28.2,17.6z M32,9.4l-2.6,5.2 h5.1L32,9.4z"/>
            </g>
          </g>
          <polygon class="st1" points="3.3,36.4 33,53.5 62.7,36.4 62.7,24.4 3.3,24.4 &#9;&#9;&#9;"/>
          <path class="st0" d="M37.8,47.6l0-20.9c0-0.1,0-0.1-0.1-0.1h-2.1c-0.1,0-0.1,0-0.1,0.1v19.7L33,47.7l-2.5-1.4V26.7 c0-0.1,0-0.1-0.1-0.1h-2.1c0,0-0.1,0-0.1,0c0,0,0,0,0,0.1l0,20.9c0,0,0,0.1,0.1,0.1l4.7,2.7c0,0,0.1,0,0.1,0L37.8,47.6 C37.8,47.7,37.8,47.7,37.8,47.6z"/>
          <path class="st0" d="M24.7,45.7c0,0,0.1,0,0.1,0c0,0,0.1-0.1,0.1-0.1v-2.3c0,0,0-0.1-0.1-0.1l-4.5-2.5v-5.5l4.1,1 c0,0,0.1-0.1,0.1-0.1l0-2.2c0,0-0.1-0.1-0.1-0.1l-4-0.9v-4.4h4.5c0.1,0,0.1,0,0.1-0.1v-1.8c0-0.1,0-0.1-0.1-0.1h-6.7 c-0.1,0-0.1,0-0.1,0.1v15.1c0,0,0,0.1,0.1,0.1L24.7,45.7z"/>
          <path class="st0" d="M48.5,41.5v-2c0,0,0-0.1-0.1-0.1c0,0-0.1,0-0.1,0l-4.4,2.4v-6l4.1-1.1c0,0,0.1-0.1,0.1-0.1v-2 c0,0,0-0.1,0-0.1c0,0,0,0-0.1,0l-4.1,0.9v-4.8h4.5c0.1,0,0.1,0,0.1-0.1v-1.8c0-0.1,0-0.1-0.1-0.1h-6.6c-0.1,0-0.1,0-0.1,0.1v18.7 c0,0,0,0.1,0.1,0.1c0,0,0.1,0,0.1,0L48.5,41.5C48.4,41.6,48.5,41.5,48.5,41.5z"/>
          <path class="st0" d="M12.4,38.6l1.8,1.1c0,0,0.1,0,0.1,0c0,0,0.1-0.1,0.1-0.1l0-12.9c0-0.1,0-0.1-0.1-0.1h-1.8 c-0.1,0-0.1,0-0.1,0.1v4.6l-4.4-1v-3.6c0-0.1,0-0.1-0.1-0.1H6c0,0-0.1,0-0.1,0c0,0,0,0,0,0.1l0,8.2c0,0,0,0.1,0.1,0.1l1.8,1 c0,0,0.1,0,0.1,0c0,0,0.1-0.1,0.1-0.1v-3.7l4.4,1.1L12.4,38.6C12.4,38.6,12.4,38.6,12.4,38.6z"/>
          <path class="st0" d="M51.9,39.5c0,0,0.1,0,0.1,0l1.9-1.1c0,0,0,0,0,0v-5.2l1.1-0.3l3.3,2.9c0,0,0.1,0.1,0.1,0l1.7-1 c0,0,0,0,0.1-0.1c0,0,0,0,0-0.1l-2.8-2.4l2-0.5c0.7-0.2,0.8-0.5,0.8-1.2l0-3.3c-0.1-0.5-0.4-0.8-0.9-0.8c0,0-0.1,0-0.1,0l-7.1,0 c-0.1,0-0.1,0.1-0.1,0.1L51.9,39.5C51.9,39.5,51.9,39.5,51.9,39.5z M54,28.6l3.9,0c0.2,0,0.3,0.1,0.3,0.3v1c0,0.2,0,0.3-0.3,0.4 L54,31.2V28.6z"/>
        </g>
      </g>
    </g>
  </g>
</svg>